<?xml version="1.0" standalone="no"?>
<!DOCTYPE svg PUBLIC "-//W3C//DTD SVG 20010904//EN"
 "http://www.w3.org/TR/2001/REC-SVG-20010904/DTD/svg10.dtd">
<svg version="1.0" xmlns="http://www.w3.org/2000/svg"
 width="800.000000pt" height="800.000000pt" viewBox="0 0 800.000000 800.000000"
 preserveAspectRatio="xMidYMid meet">
<metadata>
Created by potrace 1.11, written by Peter Selinger 2001-2013
</metadata>
<g transform="translate(0.000000,800.000000) scale(0.100000,-0.100000)"
fill="#000000" stroke="none">
<path d="M4635 6401 c-33 -16 -69 -38 -81 -48 -30 -26 -58 -78 -51 -96 3 -8
31 -28 63 -43 106 -52 290 -45 411 14 29 15 53 31 53 38 0 26 -71 101 -121
129 -44 23 -69 30 -134 33 -73 3 -85 1 -140 -27z"/>
<path d="M4240 6243 c-347 -17 -767 -81 -1008 -153 -199 -59 -430 -175 -532
-268 -150 -135 -221 -295 -304 -683 -112 -522 -144 -764 -186 -1379 -18 -256
-28 -353 -56 -531 l-6 -36 163 -32 c245 -46 372 -64 974 -135 1212 -144 1687
-179 2730 -206 382 -9 734 -2 940 20 143 16 345 59 375 80 92 66 119 131 101
242 -6 40 -18 168 -26 283 -35 466 -126 1018 -212 1280 -59 180 -194 464 -293
615 -83 127 -272 314 -393 388 -120 75 -280 144 -481 208 -94 31 -272 89 -396
129 -254 83 -460 145 -482 145 -9 0 -53 -20 -100 -45 -102 -54 -185 -75 -304
-75 -128 0 -202 24 -303 100 -63 48 -86 60 -113 58 -18 -1 -58 -3 -88 -5z
m-815 -1383 c392 -15 520 -43 601 -132 67 -74 79 -153 59 -383 -21 -238 -41
-310 -102 -366 -74 -70 -164 -91 -378 -88 l-160 2 -17 -219 c-22 -294 -26
-318 -51 -356 -37 -55 -92 -62 -304 -44 -97 8 -177 17 -179 19 -4 4 78 1346
92 1505 l6 72 81 0 c45 0 204 -5 352 -10z"/>
<path d="M3452 4606 c-16 -21 -20 -49 -26 -163 -4 -76 -9 -161 -13 -188 -5
-50 -5 -50 31 -68 66 -31 166 -14 180 30 18 56 27 143 27 253 0 153 -5 160
-111 160 -61 0 -71 -3 -88 -24z"/>
<path d="M1710 2850 c-217 -133 -543 -333 -724 -443 -431 -264 -497 -324 -440
-405 20 -29 55 -43 249 -102 569 -172 1250 -295 1830 -331 435 -27 1172 12
1585 82 235 40 698 163 928 245 169 60 441 194 577 284 177 117 436 320 595
467 l55 51 -95 6 c-52 3 -221 8 -375 11 -838 16 -1437 62 -2570 196 -280 33
-575 69 -655 80 -128 18 -487 80 -544 95 -15 4 -129 -61 -416 -236z"/>
</g>
</svg>
